<?xml version="1.0" encoding="utf-8"?>
<svg version="1.1" id="Layer_1" xmlns="http://www.w3.org/2000/svg" xmlns:xlink="http://www.w3.org/1999/xlink" x="0px" y="0px"
	 viewBox="0 0 360 360" style="enable-background:new 0 0 360 360;" xml:space="preserve">
<style type="text/css">
	.st0{fill:#FFD983;}
</style>
<path class="st0" d="M178.26,353.18c-76.49,0-138.72-62.23-138.72-138.72c0-20.28,4.28-39.84,12.72-58.11l1.86-4.03l247.24-2l1.93,4
	c9.08,18.84,13.68,39.08,13.68,60.14C316.98,290.95,254.75,353.18,178.26,353.18z M63.2,166.25c-6.41,15.26-9.66,31.46-9.66,48.21
	c0,68.77,55.95,124.72,124.72,124.72c68.77,0,124.72-55.95,124.72-124.72c0-17.46-3.51-34.28-10.45-50.07L63.2,166.25z"/>
<path class="st0" d="M55.26,173.72l-3.03-10.62c-13-45.54,1.78-94.92,37.66-125.8c17.71-15.24,39.24-25.03,62.27-28.29
	c22.42-3.17,45.22-0.08,65.93,8.94l10.12,4.41L55.26,173.72z M169.58,21.89c-25.47,0-50.72,8.93-70.57,26.02
	c-28.87,24.85-42.3,63.24-35.86,100.29L201.86,26.82C191.33,23.51,180.44,21.89,169.58,21.89z"/>
<g>
	<path class="st0" d="M194.55,129.99l-5.77,5.82l-35.55-29.68l35.55-29.68l5.77,5.87l-28.83,23.7L194.55,129.99z"/>
	<path class="st0" d="M256.71,60.21l-36.29,86.13h-8.78l36.29-86.13H256.71z"/>
	<path class="st0" d="M276.18,82.33l5.71-5.87l35.55,29.68l-35.55,29.68l-5.71-5.82l28.83-23.76L276.18,82.33z"/>
</g>
<path class="st0" d="M227.87,225.34c-9.67,0-17.53-7.86-17.53-17.53s7.86-17.53,17.53-17.53s17.53,7.86,17.53,17.53
	S237.54,225.34,227.87,225.34z M227.87,200.28c-4.15,0-7.53,3.38-7.53,7.53s3.38,7.53,7.53,7.53s7.53-3.38,7.53-7.53
	S232.03,200.28,227.87,200.28z"/>
<path class="st0" d="M132.13,225.34c-9.67,0-17.53-7.86-17.53-17.53s7.86-17.53,17.53-17.53s17.53,7.86,17.53,17.53
	S141.79,225.34,132.13,225.34z M132.13,200.28c-4.15,0-7.53,3.38-7.53,7.53s3.38,7.53,7.53,7.53s7.53-3.38,7.53-7.53
	S136.28,200.28,132.13,200.28z"/>
</svg>
